<?xml version="1.0" standalone="no"?>
<!DOCTYPE svg PUBLIC "-//W3C//DTD SVG 20010904//EN"
 "http://www.w3.org/TR/2001/REC-SVG-20010904/DTD/svg10.dtd">
<svg version="1.0" xmlns="http://www.w3.org/2000/svg"
 width="1045.000000pt" height="1045.000000pt" viewBox="0 0 1045.000000 1045.000000"
 preserveAspectRatio="xMidYMid meet">
<metadata>
Created by potrace 1.14, written by Peter Selinger 2001-2017
</metadata>
<g transform="translate(0.000000,1045.000000) scale(0.100000,-0.100000)"
fill="#000000" stroke="none">
<path d="M4986 10388 c-39 -113 -188 -515 -202 -544 -8 -17 -26 -36 -39 -42
-14 -7 -25 -16 -25 -20 0 -13 184 -5 188 7 2 6 -7 11 -20 11 -53 1 -60 24 -35
111 l17 56 90 1 c50 1 94 3 98 3 23 4 34 -5 53 -43 12 -23 23 -57 24 -75 3
-29 0 -34 -23 -39 -70 -15 -67 -31 5 -28 26 1 94 3 151 4 95 2 126 12 85 27
-10 4 -23 12 -30 18 -14 14 -67 120 -126 251 -25 54 -71 153 -103 219 -32 66
-57 123 -56 128 1 4 -6 7 -16 7 -12 0 -23 -16 -36 -52z m37 -270 c26 -56 45
-103 43 -105 -1 -2 -42 -5 -90 -8 -101 -5 -95 -20 -44 128 17 48 34 87 37 87
4 0 28 -46 54 -102z"/>
<path d="M5566 10421 c-4 -5 0 -14 9 -18 18 -11 66 -74 61 -82 -2 -3 -6 -33
-10 -66 -3 -33 -12 -112 -20 -175 -8 -63 -17 -141 -21 -173 -7 -66 -30 -97
-70 -97 -36 0 -31 -17 8 -24 75 -13 177 -18 177 -7 0 6 -6 11 -14 11 -7 0 -26
10 -41 22 -26 20 -27 23 -20 92 10 114 14 150 19 171 2 11 7 54 11 96 10 102
16 110 48 57 14 -24 65 -105 112 -178 48 -74 104 -162 124 -194 20 -33 44 -67
53 -77 9 -9 14 -19 12 -22 -2 -2 7 -16 21 -32 15 -15 28 -25 30 -23 4 4 20
122 40 308 4 36 9 73 10 82 2 9 7 48 10 85 10 102 22 141 48 149 12 5 28 7 35
6 6 -2 12 3 12 11 0 10 -20 16 -72 21 -40 3 -85 9 -100 11 -35 7 -37 -12 -2
-25 52 -20 57 -39 40 -172 -3 -24 -8 -70 -12 -103 -8 -73 -12 -96 -17 -102 -4
-3 -45 57 -56 82 -2 5 -8 14 -13 20 -5 5 -40 60 -78 120 -38 61 -73 115 -77
120 -5 6 -20 29 -33 53 -18 32 -30 42 -49 43 -14 0 -33 2 -41 3 -63 12 -129
16 -134 7z"/>
<path d="M4530 10398 c-25 -5 -69 -14 -97 -19 -59 -12 -71 -29 -19 -29 49 0
61 -19 47 -77 -7 -26 -23 -70 -35 -98 -13 -27 -29 -67 -35 -87 -7 -21 -16 -38
-21 -38 -8 0 -24 18 -85 95 -16 21 -42 52 -56 69 -26 31 -49 69 -49 81 0 3 16
13 35 21 39 16 47 35 13 28 -13 -2 -79 -13 -147 -25 -69 -11 -129 -22 -133
-25 -14 -9 -8 -20 12 -21 29 -2 60 -29 110 -95 25 -33 60 -76 79 -96 18 -20
33 -39 34 -42 0 -3 15 -24 34 -46 36 -45 38 -49 55 -166 12 -76 11 -78 -12
-98 -12 -11 -32 -20 -44 -20 -15 0 -17 -3 -9 -11 9 -9 50 -5 161 15 82 14 152
26 156 26 3 0 6 5 6 10 0 6 -13 10 -30 10 -43 0 -66 29 -79 101 -21 110 -23
148 -10 187 7 20 11 39 10 41 -2 2 1 7 6 10 4 3 30 62 58 131 27 69 54 128 60
132 58 38 54 49 -15 36z"/>
<path d="M6618 10239 c-54 -8 -134 -45 -152 -71 -7 -10 -16 -15 -19 -11 -4 3
-7 2 -7 -3 0 -5 -13 -24 -29 -43 -36 -42 -71 -148 -72 -216 -3 -148 90 -266
246 -316 68 -21 192 -33 246 -22 24 4 29 14 49 84 26 89 38 103 86 102 19 -1
34 3 34 7 0 8 -54 29 -83 34 -7 1 -16 4 -22 8 -9 5 -68 21 -90 24 -5 0 -21 5
-35 11 -44 18 -79 23 -85 13 -3 -5 5 -12 19 -16 13 -3 32 -14 41 -24 19 -21
16 -57 -12 -139 -22 -64 -36 -75 -88 -68 -47 7 -114 37 -115 51 0 5 -7 18 -16
28 -42 45 -24 247 31 366 13 28 22 52 20 52 -5 0 29 42 63 76 72 74 210 35
267 -76 7 -14 19 -51 26 -82 8 -32 19 -58 25 -58 6 0 25 47 41 105 17 58 26
105 21 105 -5 0 -20 -7 -33 -16 -23 -15 -27 -15 -54 2 -90 58 -125 78 -140 79
-9 1 -23 5 -31 8 -27 10 -84 12 -132 6z"/>
<path d="M3316 10106 c-89 -37 -109 -57 -49 -49 60 8 65 -1 172 -274 23 -58
21 -59 -46 -22 -61 34 -118 62 -122 60 -2 -2 -7 1 -10 7 -3 5 -46 30 -96 57
-49 27 -108 58 -130 70 l-40 22 -88 -37 c-49 -20 -87 -41 -86 -46 2 -5 21 -15
43 -22 23 -8 46 -19 52 -25 6 -7 33 -66 59 -132 26 -66 54 -133 61 -150 38
-89 64 -161 64 -181 0 -14 -12 -32 -30 -45 -27 -21 -33 -49 -7 -32 7 4 17 8
22 9 6 1 28 10 50 19 22 10 42 19 45 19 27 6 68 30 64 38 -3 5 -13 7 -21 3
-32 -12 -79 6 -90 33 -6 15 -37 92 -69 172 -31 80 -62 148 -68 152 -6 4 -8 8
-4 8 4 0 3 11 -2 25 -11 28 -3 27 65 -10 39 -22 96 -53 213 -116 31 -18 80
-44 107 -59 28 -15 85 -46 128 -69 58 -32 78 -39 82 -29 5 11 -64 196 -105
283 -19 40 -110 276 -110 284 0 5 11 19 25 32 51 49 30 50 -79 5z"/>
<path d="M7650 9880 c-11 -7 -12 -10 -2 -10 30 0 64 -71 41 -86 -5 -3 -7 -10
-4 -15 4 -5 1 -9 -4 -9 -6 0 -11 -7 -11 -15 0 -8 -5 -15 -11 -15 -5 0 -7 -4
-4 -10 3 -5 1 -10 -4 -10 -6 0 -10 -3 -9 -7 2 -12 -24 -63 -33 -63 -4 0 -10
-12 -13 -26 -4 -14 -15 -35 -26 -46 -11 -12 -17 -24 -15 -28 3 -4 -2 -13 -10
-20 -8 -7 -12 -16 -9 -21 3 -5 1 -9 -5 -9 -5 0 -13 -10 -17 -22 -3 -13 -12
-30 -19 -38 -8 -8 -13 -17 -13 -20 1 -3 -9 -22 -23 -43 -24 -38 -25 -38 -74
-32 l-50 5 25 -20 c14 -11 40 -25 58 -32 17 -7 32 -16 32 -21 0 -4 5 -5 10 -2
6 3 10 2 10 -3 0 -8 71 -46 79 -42 2 1 7 -2 10 -7 9 -13 61 -44 61 -37 0 3 -9
17 -20 31 -21 27 -27 78 -10 88 6 4 8 11 5 16 -4 5 -2 9 3 9 9 0 47 70 44 83
-1 4 5 10 13 13 8 4 15 13 15 20 0 8 10 18 23 23 26 10 33 -2 41 -76 3 -27 8
-56 10 -64 7 -22 18 -100 20 -144 1 -43 -6 -46 -64 -30 -37 11 -15 -7 55 -45
33 -18 76 -43 96 -56 20 -13 40 -20 43 -17 3 4 6 2 6 -4 0 -12 46 -34 54 -26
3 4 0 13 -8 22 -8 9 -17 34 -20 56 -3 22 -8 51 -10 65 -4 23 -14 81 -31 180
-4 19 -12 68 -19 108 l-13 74 26 10 c14 5 33 11 41 13 8 2 15 4 15 5 0 2 13 5
51 14 12 2 37 9 56 14 35 10 135 9 176 -1 37 -9 8 19 -34 35 -19 6 -34 15 -34
18 0 8 -52 34 -62 32 -5 -1 -8 3 -8 9 0 5 -4 7 -10 4 -5 -3 -10 -1 -10 4 0 6
-7 11 -15 11 -8 0 -15 5 -15 11 0 5 -4 8 -9 5 -5 -4 -11 -1 -13 6 -3 8 -6 6
-10 -4 -5 -11 0 -18 18 -22 32 -8 44 -54 18 -70 -29 -17 -314 -99 -321 -92 -5
5 59 130 70 134 4 2 7 9 7 17 0 7 7 18 15 25 9 7 13 15 11 18 -8 8 22 33 45
37 12 2 30 0 40 -5 10 -6 20 -6 23 -2 3 4 -16 19 -42 33 -26 13 -48 27 -50 32
-2 4 -8 7 -13 7 -5 0 -27 11 -49 25 -22 14 -40 23 -40 19 0 -3 -7 2 -16 10 -8
9 -21 16 -29 16 -7 0 -15 4 -17 10 -2 6 -8 6 -18 0z"/>
<path d="M2515 9740 c-55 -32 -105 -61 -110 -66 -6 -5 -17 -10 -25 -12 -8 -2
-19 -8 -24 -13 -17 -16 2 -22 34 -11 26 9 33 8 54 -11 14 -12 41 -53 62 -92
20 -38 41 -73 47 -76 5 -3 9 -10 9 -15 -1 -12 79 -158 91 -165 5 -3 8 -8 6
-10 -1 -2 8 -23 20 -46 28 -55 27 -75 -6 -107 -33 -34 -25 -42 18 -18 19 10
85 47 147 81 61 35 110 67 106 72 -3 5 -13 5 -25 -2 -11 -5 -32 -9 -46 -7 -27
3 -42 24 -113 153 -99 181 -121 218 -134 227 -6 4 -8 8 -4 8 4 0 -1 16 -12 36
-28 49 -23 90 12 105 28 11 30 22 5 24 -7 1 -57 -24 -112 -55z"/>
<path d="M4999 9546 c-2 -2 -49 -7 -104 -10 -55 -3 -116 -8 -135 -11 -19 -2
-60 -6 -90 -10 -30 -3 -66 -7 -80 -9 -27 -5 -70 -12 -135 -21 -22 -3 -51 -8
-65 -11 -14 -2 -36 -7 -50 -9 -14 -3 -36 -7 -50 -10 -14 -4 -35 -8 -47 -11
-13 -2 -33 -6 -45 -8 -22 -5 -40 -9 -88 -21 -46 -11 -66 -16 -88 -21 -13 -2
-42 -11 -66 -19 -23 -8 -53 -17 -67 -19 -13 -3 -25 -5 -26 -7 -2 -1 -6 -2 -10
-3 -5 -1 -14 -5 -20 -9 -7 -5 -13 -6 -13 -3 0 3 -15 -1 -34 -9 -18 -8 -36 -11
-40 -8 -3 4 -6 0 -6 -7 0 -7 -3 -11 -6 -7 -4 3 -23 0 -43 -8 -49 -18 -71 -25
-74 -23 -1 1 -13 -5 -27 -12 -14 -8 -27 -15 -30 -15 -18 -3 -87 -29 -96 -37
-7 -5 -20 -10 -30 -12 -11 -3 -41 -14 -69 -27 -27 -12 -53 -22 -57 -21 -5 1
-8 -3 -8 -10 0 -6 -3 -9 -6 -5 -4 3 -21 -1 -38 -10 -17 -10 -33 -17 -36 -18
-18 -2 -210 -100 -210 -107 0 -5 -4 -7 -9 -3 -5 3 -16 -2 -24 -10 -9 -8 -20
-15 -25 -15 -5 0 -22 -10 -38 -22 -15 -13 -24 -17 -20 -9 5 7 -11 -1 -34 -18
-24 -17 -49 -31 -57 -31 -7 0 -13 -4 -13 -10 0 -5 -7 -10 -15 -10 -8 0 -15 -4
-15 -10 0 -5 -7 -10 -15 -10 -8 0 -15 -5 -15 -11 0 -5 -4 -7 -10 -4 -5 3 -10
3 -10 -2 0 -4 -18 -17 -40 -27 -22 -11 -40 -23 -40 -28 0 -4 -4 -8 -9 -8 -14
0 -91 -52 -91 -62 0 -4 -7 -8 -15 -8 -8 0 -15 -5 -15 -11 0 -5 -4 -8 -9 -5 -4
3 -19 -6 -31 -19 -13 -14 -29 -25 -36 -25 -6 0 -14 -7 -18 -15 -3 -8 -12 -15
-21 -15 -8 0 -15 -4 -15 -8 0 -5 -23 -23 -50 -41 -27 -18 -50 -37 -50 -42 0
-5 -5 -9 -11 -9 -10 0 -23 -10 -80 -62 -10 -10 -24 -18 -30 -18 -5 0 -7 -4 -4
-10 3 -5 2 -10 -3 -10 -10 0 -58 -39 -114 -92 -16 -16 -33 -28 -39 -28 -6 0
-8 -4 -5 -9 3 -5 -6 -16 -19 -25 -37 -25 -204 -194 -197 -200 3 -3 -2 -6 -11
-6 -9 0 -16 -4 -14 -8 1 -4 -16 -26 -38 -48 -53 -54 -124 -134 -119 -134 3 0
-5 -11 -18 -23 -13 -13 -36 -41 -53 -63 -16 -21 -38 -46 -48 -56 -9 -10 -15
-18 -12 -18 3 0 -4 -10 -15 -22 -12 -13 -29 -35 -38 -50 -9 -16 -20 -28 -24
-28 -4 0 -8 -7 -8 -15 0 -8 -3 -15 -7 -15 -5 0 -21 -21 -38 -48 -16 -26 -38
-56 -47 -66 -10 -11 -18 -24 -18 -28 0 -5 -9 -18 -20 -30 -11 -12 -20 -28 -20
-35 0 -7 -4 -13 -10 -13 -5 0 -10 -7 -10 -15 0 -8 -4 -15 -10 -15 -5 0 -12
-11 -16 -25 -3 -14 -10 -25 -16 -25 -5 0 -7 -4 -4 -9 3 -5 -1 -12 -10 -15 -8
-3 -12 -10 -9 -16 3 -5 1 -10 -4 -10 -6 0 -10 -3 -9 -7 1 -5 -10 -27 -25 -50
-15 -24 -27 -47 -27 -53 0 -5 -4 -10 -10 -10 -5 0 -10 -6 -10 -14 0 -7 -9 -25
-20 -38 -10 -14 -16 -28 -13 -32 3 -3 0 -6 -7 -6 -7 0 -11 -3 -7 -6 3 -3 -5
-23 -18 -44 -13 -21 -21 -41 -18 -44 4 -3 0 -6 -7 -6 -7 0 -10 -3 -7 -7 4 -3
-1 -15 -10 -26 -10 -10 -17 -21 -15 -23 1 -2 -9 -26 -22 -53 -14 -27 -22 -51
-19 -55 4 -3 1 -6 -5 -6 -7 0 -12 -6 -12 -13 0 -7 -11 -37 -25 -65 -14 -29
-31 -69 -39 -90 -8 -20 -24 -62 -36 -92 -27 -69 -44 -123 -42 -132 1 -5 -3 -8
-10 -8 -6 0 -8 -3 -5 -6 3 -4 1 -16 -5 -27 -6 -12 -17 -43 -24 -69 -8 -26 -21
-72 -29 -100 -17 -55 -22 -76 -29 -105 -2 -10 -9 -30 -15 -45 -6 -16 -9 -28
-7 -28 2 0 -2 -20 -10 -45 -7 -25 -11 -45 -8 -45 3 0 0 -8 -5 -17 -5 -10 -12
-34 -15 -53 -7 -46 -14 -78 -20 -98 -3 -9 -8 -35 -11 -57 -3 -23 -7 -50 -9
-60 -7 -36 -17 -99 -20 -130 -2 -16 -7 -50 -11 -75 -9 -62 -15 -131 -30 -330
-6 -72 -6 -450 0 -520 2 -30 7 -89 10 -130 3 -41 7 -93 10 -115 16 -135 28
-223 31 -240 3 -11 7 -36 10 -55 3 -19 7 -48 10 -65 3 -16 7 -38 10 -48 3 -11
7 -29 9 -40 2 -12 6 -33 9 -47 4 -14 9 -38 12 -54 2 -16 7 -32 9 -36 6 -10 17
-63 17 -82 -1 -10 4 -20 9 -23 5 -4 7 -10 4 -15 -3 -4 2 -25 11 -46 9 -22 16
-41 16 -44 -3 -17 95 -325 122 -385 7 -16 22 -55 32 -85 11 -30 22 -57 27 -58
4 -2 5 -8 1 -13 -3 -5 0 -9 7 -9 7 0 9 -3 6 -7 -4 -3 -2 -12 4 -20 6 -7 8 -13
4 -13 -5 0 -1 -8 8 -17 8 -10 16 -22 17 -28 2 -23 25 -75 33 -75 4 0 5 -4 2
-10 -3 -5 -1 -10 6 -10 7 0 10 -3 6 -6 -7 -7 102 -225 118 -236 5 -4 6 -8 1
-8 -5 0 -2 -8 7 -18 10 -10 14 -22 10 -25 -3 -4 -1 -7 5 -7 7 0 12 -4 12 -10
0 -9 98 -179 110 -190 3 -3 10 -14 17 -25 41 -69 90 -145 115 -176 15 -20 28
-40 28 -43 0 -3 9 -16 20 -29 54 -58 55 -60 40 -52 -8 4 -2 -4 14 -19 16 -14
26 -26 22 -26 -7 0 -5 -3 41 -57 16 -18 39 -47 53 -64 14 -18 33 -40 43 -51 9
-10 17 -21 17 -26 0 -4 13 -19 30 -34 16 -14 26 -28 23 -32 -4 -3 1 -6 10 -6
10 0 17 -5 17 -11 0 -11 52 -66 204 -216 132 -132 196 -192 196 -187 0 3 15
-10 33 -28 17 -19 48 -45 67 -58 19 -14 42 -32 51 -40 57 -51 79 -69 79 -62 0
4 5 -1 11 -11 5 -9 16 -17 23 -17 8 0 16 -7 20 -15 3 -8 11 -15 18 -15 7 0 19
-9 26 -21 7 -12 16 -18 19 -15 3 3 11 0 18 -7 7 -7 23 -19 35 -27 12 -8 29
-21 36 -28 8 -7 14 -10 14 -6 0 4 7 -1 15 -12 8 -10 15 -15 15 -11 0 4 10 -1
22 -13 12 -11 34 -26 50 -32 15 -7 28 -15 28 -18 0 -3 20 -16 45 -30 25 -14
45 -28 45 -33 0 -4 5 -5 10 -2 6 3 10 1 10 -5 0 -6 5 -8 10 -5 6 3 10 2 10 -4
0 -6 11 -13 25 -17 14 -3 25 -9 25 -13 0 -3 26 -19 58 -36 31 -16 59 -33 62
-36 7 -8 44 -22 53 -21 4 1 7 -2 7 -6 0 -5 19 -17 43 -27 23 -10 50 -26 61
-34 10 -9 20 -15 22 -14 2 1 25 -8 51 -20 27 -11 51 -20 56 -19 4 1 7 -2 7 -8
0 -5 4 -10 9 -10 5 0 22 -5 38 -12 15 -6 30 -12 33 -13 3 -1 23 -10 45 -20 52
-23 79 -33 85 -32 3 1 19 -6 35 -15 24 -14 181 -72 220 -82 6 -2 23 -8 39 -15
16 -6 36 -13 45 -15 9 -1 49 -13 90 -25 41 -13 81 -24 90 -26 9 -3 54 -14 101
-26 99 -24 102 -25 195 -44 39 -8 79 -16 90 -19 11 -2 40 -7 65 -11 25 -4 52
-9 60 -10 26 -5 113 -16 160 -21 25 -3 55 -6 68 -9 12 -2 62 -7 110 -10 48 -4
112 -8 142 -10 66 -5 412 -5 491 0 114 7 235 16 259 20 14 3 45 6 70 9 25 3
74 9 110 15 36 5 85 13 110 16 24 4 47 8 50 10 3 2 26 6 50 10 25 3 74 13 110
21 36 9 74 17 85 20 11 2 30 6 43 9 12 3 31 7 43 10 11 2 29 7 39 10 10 3 27
8 37 10 59 13 194 55 214 66 13 7 26 12 29 11 10 -2 56 11 68 21 6 5 12 6 12
2 0 -4 6 -3 13 3 6 6 17 11 22 11 18 2 80 23 90 31 6 5 13 9 17 9 11 2 39 11
63 20 11 5 25 9 30 11 6 1 21 8 35 15 22 12 54 25 70 30 3 0 39 17 80 36 41
20 90 42 108 50 17 8 32 18 32 22 0 5 5 5 10 2 6 -3 10 -1 10 5 0 6 5 8 10 5
6 -3 10 -1 10 5 0 6 5 8 10 5 6 -3 10 -1 10 6 0 7 3 10 6 6 3 -3 21 3 39 13
18 10 43 24 56 32 13 7 32 19 42 27 9 8 17 11 17 8 0 -6 106 55 127 73 7 5 16
10 21 10 4 0 19 10 32 23 14 12 27 22 30 21 7 -2 54 29 62 41 4 5 8 6 8 1 0
-4 20 8 44 28 24 20 49 36 55 36 6 0 11 5 11 10 0 6 6 10 13 10 10 0 45 26 99
74 9 8 19 12 22 9 3 -3 8 2 12 11 3 9 10 16 15 16 10 0 38 22 75 58 13 13 24
20 24 16 0 -4 14 7 30 25 17 17 34 31 40 31 5 0 14 9 20 20 6 11 15 20 21 20
6 0 26 16 45 35 18 19 38 35 44 35 6 0 8 5 5 10 -3 6 -1 10 5 10 6 0 80 69
163 154 166 169 248 256 240 256 -3 0 7 13 23 29 36 36 64 72 64 84 0 4 5 5
10 2 6 -3 10 -1 10 4 0 11 20 38 52 73 10 10 15 18 10 18 -4 0 -2 4 4 8 17 10
84 101 84 112 0 6 4 10 8 10 5 0 17 16 28 35 10 19 22 35 26 35 5 0 8 4 8 10
0 5 9 20 20 32 10 13 20 28 22 33 1 6 6 15 11 20 17 20 96 145 91 145 -3 0 4
10 15 22 11 11 18 25 15 30 -3 4 -1 8 5 8 5 0 15 16 22 35 7 19 17 35 21 35 4
0 8 7 8 15 0 8 5 15 11 15 5 0 7 5 4 10 -3 6 -1 10 5 10 6 0 8 5 5 10 -3 6 -2
10 3 10 5 0 17 20 28 45 10 25 22 45 26 45 4 0 8 3 7 8 -2 15 14 52 22 52 5 0
9 4 9 9 0 5 10 30 22 57 12 27 23 51 23 54 1 3 13 28 28 56 14 28 23 54 20 58
-4 3 -1 6 5 6 7 0 11 3 10 8 -1 4 6 24 15 46 9 21 17 41 17 45 1 3 9 24 20 46
11 22 19 47 20 56 0 9 3 19 8 23 4 4 7 11 8 14 0 4 6 21 13 37 6 17 16 41 21
55 14 38 71 227 74 242 1 7 4 18 7 23 4 6 10 28 14 50 5 22 9 45 11 50 2 6 5
20 8 33 3 13 8 32 11 42 3 10 8 29 11 42 3 13 7 32 9 43 3 11 7 30 9 43 3 13
7 31 10 40 3 9 7 35 11 57 3 22 10 66 16 98 5 32 12 74 15 95 3 20 7 48 9 62
2 14 7 54 10 90 4 36 9 79 11 95 22 156 21 718 0 875 -3 19 -7 63 -10 97 -3
34 -7 72 -10 85 -3 13 -8 43 -11 68 -11 84 -16 114 -35 210 -6 30 -13 64 -15
75 -2 11 -6 31 -9 45 -3 14 -8 35 -11 48 -3 12 -7 31 -10 42 -11 44 -16 66
-20 86 -3 11 -19 68 -35 125 -17 57 -33 111 -35 119 -2 8 -4 16 -5 18 -2 1 -3
5 -4 10 -3 10 -26 84 -33 102 -3 8 -7 20 -9 25 -1 6 -8 24 -15 40 -7 17 -13
32 -13 35 -1 3 -5 11 -9 18 -5 6 -6 12 -2 12 3 0 -3 17 -14 39 -11 21 -17 41
-14 45 4 3 0 6 -7 6 -7 0 -10 3 -7 6 3 4 1 16 -5 28 -7 11 -13 23 -13 26 -1 3
-9 23 -19 45 -25 56 -39 89 -41 95 -7 24 -110 226 -117 228 -4 2 -6 8 -2 13 3
5 0 9 -5 9 -6 0 -10 3 -9 8 3 12 -45 102 -55 102 -4 0 -5 5 -2 10 3 6 1 10 -5
10 -6 0 -8 5 -5 10 3 6 1 10 -4 10 -6 0 -11 7 -11 15 0 8 -4 15 -10 15 -5 0
-10 9 -10 20 0 11 -4 20 -8 20 -5 0 -14 12 -21 27 -16 34 -82 136 -96 145 -6
5 -6 8 0 8 6 0 2 5 -8 11 -9 6 -15 14 -12 20 4 5 2 9 -4 9 -5 0 -13 9 -16 20
-4 11 -18 32 -31 45 -14 14 -22 25 -19 25 4 0 0 7 -7 15 -29 32 -38 45 -38 52
0 5 -9 15 -20 23 -11 8 -20 20 -20 27 0 6 -8 17 -17 22 -10 6 -14 11 -10 11 5
0 2 6 -5 13 -7 8 -24 29 -38 47 -14 19 -33 41 -42 49 -10 9 -18 21 -18 29 0 7
-4 10 -10 7 -5 -3 -10 -2 -10 3 0 5 -9 20 -21 33 -11 13 -41 49 -67 79 -79 91
-424 430 -439 430 -3 0 -19 14 -35 32 -15 17 -28 28 -28 24 0 -4 -10 3 -22 16
-13 13 -43 39 -68 58 -25 19 -46 38 -48 42 -2 4 -10 8 -18 8 -8 0 -14 3 -14 8
0 4 -23 22 -50 41 -28 19 -50 38 -50 43 0 5 -4 6 -10 3 -5 -3 -10 -1 -10 4 0
6 -5 11 -11 11 -6 0 -17 6 -24 13 -35 30 -45 37 -45 30 0 -4 -5 0 -11 10 -5 9
-17 17 -24 17 -8 0 -15 5 -15 12 0 6 -3 9 -6 5 -4 -3 -12 -1 -20 6 -34 30 -44
37 -44 30 0 -4 -5 0 -11 10 -6 9 -14 15 -20 12 -5 -4 -9 -1 -9 4 0 6 -7 11
-15 11 -8 0 -15 5 -15 11 0 5 -4 7 -10 4 -5 -3 -10 -2 -10 3 0 4 -15 16 -32
25 -18 9 -55 30 -83 47 -27 17 -57 33 -65 37 -8 3 -26 14 -40 24 -14 9 -29 18
-35 19 -22 6 -61 25 -73 37 -8 7 -18 11 -23 8 -5 -4 -9 -1 -9 5 0 6 -4 9 -9 6
-5 -4 -11 -1 -13 4 -2 6 -11 12 -20 13 -9 2 -22 8 -29 14 -8 6 -16 11 -19 11
-3 -1 -23 8 -45 19 -22 12 -43 22 -47 22 -4 1 -25 9 -45 18 -21 9 -40 17 -43
18 -3 0 -15 6 -26 13 -12 6 -24 8 -28 5 -3 -3 -6 -1 -6 5 0 7 -3 11 -7 10 -8
-1 -22 3 -88 32 -34 14 -53 21 -107 35 -5 2 -10 4 -13 5 -3 1 -8 3 -12 4 -5 1
-12 4 -18 7 -10 7 -77 29 -98 33 -7 2 -19 6 -27 9 -17 7 -129 40 -147 43 -6 1
-27 7 -45 13 -18 6 -46 13 -63 16 -37 7 -59 13 -62 15 -4 3 -10 5 -63 15 -25
5 -47 9 -50 10 -26 6 -121 26 -145 29 -16 3 -43 7 -60 10 -16 3 -43 7 -60 10
-16 3 -50 8 -75 11 -25 3 -61 8 -80 10 -19 3 -62 8 -95 11 -33 3 -78 7 -100
10 -46 6 -601 15 -606 10z"/>
<path d="M2134 9517 c-75 -53 -88 -63 -106 -80 -27 -25 -19 -29 27 -12 39 13
40 12 53 -12 17 -31 19 -40 27 -149 4 -49 8 -99 10 -111 2 -12 -3 -24 -11 -27
-8 -3 -14 -2 -14 2 0 4 -15 13 -32 21 -18 8 -72 34 -120 57 -49 23 -88 40 -89
36 0 -4 -4 2 -8 13 -5 11 -4 25 1 33 6 6 7 12 2 13 -5 0 1 4 14 9 23 10 31 34
9 28 -25 -6 -246 -173 -247 -186 0 -9 5 -10 18 -4 35 19 76 4 332 -121 78 -39
89 -48 137 -116 58 -82 63 -104 31 -138 -37 -39 -11 -38 46 3 31 21 70 49 88
62 18 13 44 33 58 46 14 12 33 25 43 29 26 10 21 31 -5 22 -53 -17 -88 -18
-88 -2 0 8 -4 17 -8 19 -4 2 -33 38 -65 82 -43 59 -57 88 -58 115 -1 20 -3 45
-4 56 -1 11 -5 65 -9 120 -4 55 -9 108 -12 117 -3 9 2 33 11 53 8 21 15 39 15
41 0 9 -17 2 -46 -19z"/>
<path d="M8405 9335 c-95 -43 -149 -141 -134 -243 4 -28 76 -107 107 -116 12
-4 22 -12 22 -17 0 -15 -26 -39 -34 -32 -3 4 -6 1 -6 -6 0 -7 -4 -10 -9 -7 -5
3 -14 0 -20 -8 -11 -13 -70 -27 -133 -31 -15 -1 -53 7 -85 16 -31 10 -59 17
-61 15 -2 -2 11 -14 27 -26 17 -12 31 -18 31 -14 0 3 6 1 14 -5 16 -13 62 -28
116 -38 81 -14 152 -8 216 18 16 7 32 12 37 11 4 -1 7 3 7 10 0 6 3 9 6 5 6
-5 23 7 76 56 17 15 27 27 23 27 -5 0 1 8 12 18 20 18 51 72 60 107 19 73 4
155 -39 205 -19 22 -78 63 -78 54 0 -5 -5 -3 -12 4 -16 16 -106 15 -143 -3z
m183 -41 c46 -32 15 -123 -77 -226 -14 -16 -21 -28 -17 -28 12 0 -56 -54 -71
-56 -7 -1 -11 2 -7 7 3 5 -3 9 -14 9 -10 0 -19 6 -20 13 -8 48 -5 76 7 102 21
43 72 119 88 128 7 5 11 12 8 18 -4 5 1 9 9 9 8 0 18 5 22 12 5 7 3 8 -6 3 -9
-5 -11 -4 -6 4 4 6 11 9 15 7 4 -3 13 -1 21 5 20 12 22 11 48 -7z"/>
</g>
</svg>
